# xmcd
#
# Track frame offsets: 
#        150
#        13366
#        27319
#        41072
#        60242
#        78879
#        98061
#        112757
#        125952
#        147400
#        170154
#        186796
#        202657
#        217816
#        235263
#        250779
#
# Disc length: 3541 seconds
#
# Revision: 0
# Processed by: cddbd v1.5.2PL0 Copyright (c) Steve Scherf et al.
# Submitted via: ExactAudioCopy v1.0b3
#
DISCID=d60dd310
DTITLE=小林旭 - 小林旭大全集~渡り鳥AKIRA 50HISTORY~ Disc 3 CRCN-50120-24
DYEAR=1900
DGENRE=Blues
TTITLE0=赤道を駈ける男
TTITLE1=旅心 
TTITLE2=月に吠える唄 
TTITLE3=ついて来るかい
TTITLE4=にっぽん無宿
TTITLE5=ごめんね 
TTITLE6=純子
TTITLE7=夜の阿呆鳥 
TTITLE8=琵琶湖周航の歌
TTITLE9=北上夜曲 
TTITLE10=オロロン慕情
TTITLE11=城ヶ島の雨
TTITLE12=ゴルフショー歌
TTITLE13=昔の名前で出ています
TTITLE14=夕子
TTITLE15=ショーがないね節
EXTD=
EXTT0=
EXTT1=
EXTT2=
EXTT3=
EXTT4=
EXTT5=
EXTT6=
EXTT7=
EXTT8=
EXTT9=
EXTT10=
EXTT11=
EXTT12=
EXTT13=
EXTT14=
EXTT15=
PLAYORDER=
